<svg width="46" height="39" viewBox="0 0 46 39" fill="none" xmlns="http://www.w3.org/2000/svg">
<rect width="46" height="39" rx="19.5" fill="#F33E62"/>
<path d="M9.18755 6.584H19.8115V7.672H9.18755V6.584ZM9.23555 11.592H19.7475V12.68H9.23555V11.592ZM11.3635 7.416H12.6915V12.2H11.3635V7.416ZM16.3075 7.416H17.6195V12.2H16.3075V7.416ZM7.93955 14.344H21.0595V15.448H7.93955V14.344ZM13.8275 14.84H15.1395V20.232H13.8275V14.84Z" fill="white"/>
<path d="M27.6863 9.076H28.6703V19.948H27.6863V9.076ZM25.6223 13.24H27.9263V14.068H25.6223V13.24ZM20.1623 16.504H20.9903C21.6303 16.504 22.2183 16.496 22.7543 16.48C23.2903 16.464 23.8103 16.432 24.3143 16.384C24.8183 16.336 25.3343 16.26 25.8623 16.156L25.9463 16.984C25.4023 17.08 24.8743 17.156 24.3623 17.212C23.8583 17.26 23.3303 17.296 22.7783 17.32C22.2343 17.336 21.6383 17.344 20.9903 17.344H20.1623V16.504ZM20.1263 10.084H24.9743V13.888H21.1463V16.768H20.1623V13.072H24.0023V10.9H20.1263V10.084Z" fill="#6FFF6F"/>
<path d="M15.0355 17.48H28.3155V18.84H15.0355V17.48ZM15.0955 23.74H28.2355V25.1H15.0955V23.74ZM17.7555 18.52H19.4155V24.5H17.7555V18.52ZM23.9355 18.52H25.5755V24.5H23.9355V18.52ZM13.4755 27.18H29.8755V28.56H13.4755V27.18ZM20.8355 27.8H22.4755V34.54H20.8355V27.8Z" fill="#0B20A9"/>
<path d="M36.026 23.076H37.01V33.948H36.026V23.076ZM33.962 27.24H36.266V28.068H33.962V27.24ZM28.502 30.504H29.33C29.97 30.504 30.558 30.496 31.094 30.48C31.63 30.464 32.15 30.432 32.654 30.384C33.158 30.336 33.674 30.26 34.202 30.156L34.286 30.984C33.742 31.08 33.214 31.156 32.702 31.212C32.198 31.26 31.67 31.296 31.118 31.32C30.574 31.336 29.978 31.344 29.33 31.344H28.502V30.504ZM28.466 24.084H33.314V27.888H29.486V30.768H28.502V27.072H32.342V24.9H28.466V24.084Z" fill="#BCFF69"/>
</svg>
